<?xml version="1.0" encoding="UTF-8"?>
<svg width="1200pt" height="1200pt" version="1.1" viewBox="0 0 1200 1200" xmlns="http://www.w3.org/2000/svg">
 <path d="m1040.9 580.22c-7.7344-23.438-16.688-45.703-26.719-66.422 23.438-18.703 16.875-51.234-8.2031-67.219-9.1406-5.9062-19.219-9.7031-29.438-12.422-0.51562-2.625-1.1719-3.7969-1.875-4.9219-2.9531-137.44-96.562-273.47-228.42-331.64-100.69-44.391-229.55-38.297-328.26 15.703-78.234 42.75-128.39 111.38-141.28 193.31-8.7188 55.734-0.5625 115.97 23.578 174.98-0.5625 1.9219 0.046875 6.5156 0.75 7.9688-41.672 38.391-68.062 102.09-79.219 150.89-5.25 23.25-7.875 47.25-7.875 71.25 0 38.859 6.75 77.672 20.203 113.91 0.32812 0.84375 0.84375 1.5938 1.4062 2.25-4.2188 51.141 22.172 107.72 72.938 134.02 24.656 12.844 54.141 18.562 84.422 14.391 35.203 54.469 84.375 103.78 144.52 128.68 54.844 23.016 113.62 30.75 164.86 25.312 109.17-11.438 227.86-50.438 293.11-138.42 70.5-94.641 99.938-244.97 45.516-411.61zm-605.34-65.484c-0.28125-1.125-20.812-84.094-20.531-82.781-65.109-261.47-34.219-137.39-42.891-172.13-3.7969-15.516 5.0156-31.078 20.297-35.578l288.56-84.891h0.23438l48.422-14.297c15.938-4.6406 32.672 4.5 37.078 21.141 7.6875 30.516 63.984 253.45 85.312 337.97-10.781 2.625-31.406 6.7031-43.312 8.8594-0.09375 0.09375-0.32812 0.09375-0.5625 0.09375-131.86 23.625-286.69 28.781-372.61 21.609zm-56.719-6.6562c-5.9531-23.859 21.516 86.484-58.031-233.44-3.7969-15.375 5.1094-31.078 20.391-35.578l17.672-5.25c-3.375 6.75-5.4375 18.562-2.5312 29.906 0.28125 1.1719 57.797 232.6 57.469 231.37l4.4531 18.094c-15-1.4062-33.703-4.0312-39.422-5.1094zm-52.828-14.906c-0.09375 0-0.09375-0.09375-0.23438-0.09375-7.9688-5.6719-12.234-6.8906-6.3281-14.719 7.3594-7.5938 20.953-13.922 30.656-18.094l11.016 44.531c-9.75-2.1562-26.391-6.7031-35.109-11.625zm541.97-12.797-7.4062-29.578h-0.09375c-8.0625-32.016-11.062-44.109-10.688-42.562 25.641 2.1094 77.391 8.1094 100.03 20.297 10.359 4.6875 15.281 11.25 5.0156 18.094-18.188 15.375-63.703 27.984-86.859 33.75zm89.578-66.328c-7.5938-3.7969-17.766-7.1719-25.875-9.5156-0.23438 0-0.42188-0.09375-0.65625-0.09375v-0.09375c-32.812-8.5312-63.562-10.641-85.547-12.891-66.844-263.34-62.438-250.55-66.234-258.1 100.41 60.234 170.21 168.98 178.31 280.69zm-531.71-286.36c91.078-49.734 208.92-57.047 303.61-19.312-3.75 0.5625-0.9375 0.09375-52.359 15.047l-0.09375 0.09375c-0.23438 0-0.32812 0-0.5625 0.09375-2.3438 0.375 9.75-2.9531-339.94 99.703-7.2188 2.2031-13.547 5.9062-18.656 10.781 23.016-43.547 59.859-80.109 108-106.41zm-132.98 181.55c2.2969-14.625 5.9062-28.781 10.688-42.422 0 3.9375 0.42188 7.875 1.4062 11.766l41.25 165.71c-12.328 4.7344-24.891 11.25-35.25 19.547-19.547-52.5-25.734-105.52-18.094-154.6zm-54.984 334.92c10.359-45.797 34.688-105.19 72.984-141.28 0.65625 0.32812 1.5469 0.98438 2.625 1.875 4.125 1.7812 3.2344 4.5469 32.719 13.312 19.922 6.6562 76.266 12 82.125 12.656 86.391 8.1094 249 2.4375 382.26-21.375 0.32812 0 0.5625 0 0.75-0.09375 1.4062-0.23438 49.875-9.1875 51.375-10.688 28.641-7.0312 95.297-23.438 110.62-48.328 8.3906 2.3906 16.594 5.5781 23.766 10.125 9.375 6 17.438 17.906 14.719 28.922-3.375 13.031-20.016 20.156-33.141 23.016-29.766 6.2344-61.547 3.0469-89.578-9.0469-4.4062-1.875-9.4219 0.42188-10.922 4.6875-11.344 30.562-39.375 54.234-71.438 60.328-51.844 10.219-78.844-2.8594-100.27-32.391-3.4688-4.875-10.688-4.3594-13.641 0.65625-5.3438 8.9062-6.2344 15.375-12.328 21.797-18.844 20.062-44.25 35.625-76.453 40.688-43.219 6.2344-89.766-10.781-118.78-43.312-5.625-6.375-16.266-0.89062-13.969 7.7344 15.469 52.781 26.953 100.78 9.7969 153.71-10.688 33.469-30.328 63.188-52.781 84.094-1.125 1.0312-11.438 8.2969-13.078 9.5156-11.719-66.516-87.281-99.422-143.44-55.734-7.4062 5.6719-13.969 12.562-19.547 20.391-1.5 1.5-8.0156 12.094-11.25 18-13.078-48.469-14.297-100.64-3.1406-149.26zm744.42 337.82c-62.578 84.562-177.24 120.66-281.68 132-49.5 5.0625-104.72-2.3438-156.89-24.094-23.906-9.9375-47.344-24.656-69.609-43.734-40.031-34.594-63.047-72.234-64.031-73.547 6.4688-1.7812 12.891-3.8906 19.172-6.7031 4.125-1.8281 6-6.7031 4.125-10.828-1.8281-4.125-6.7031-6-10.828-4.125-39.656 17.766-88.969 12.141-123.71-14.438-44.109-33.75-61.922-100.64-34.031-150.79 0.046876-0.046874 0.14063-0.14062 0.1875-0.1875 0-0.09375 0.09375-0.23437 0.09375-0.32812 0.23438-0.09375 0.23438-0.23438 0.32813-0.32813 16.594-23.438 44.625-36.328 71.672-32.719 36.234 5.1094 62.859 36.656 63.141 75.141 0.23437 8.6719 11.672 10.969 15.375 3.7969 3.75-3.6094 21.75-16.078 23.672-18 24.047-22.219 45.469-54.141 57.281-90.984 15.375-47.672 9.7031-90.75-1.9688-135.71 30.656 22.922 69.938 33.703 108.33 29.016h0.1875c-10.922 30.047 11.625 60 41.906 60 24.703 0 44.766-20.016 44.766-44.766 0-16.922-9.5156-31.5-23.391-39.094 0.046874-0.046875 0.14062-0.09375 0.23437-0.14062 0.09375 0 0.32813-0.09375 0.42188-0.23438 9.0469-6.2344 17.578-13.547 25.219-21.703 4.5938-4.7812 7.0781-9.375 9.1406-13.734 22.5 25.406 53.109 39 108.23 28.594 34.781-6.6562 65.578-30.984 80.531-63.047 41.672 15.469 86.203 11.859 109.88 0.98438 9.4688 19.875 17.672 40.453 25.078 62.953 18.328 56.062 27.375 112.27 27.375 166.03 0.14063 96.047-29.484 177.14-70.219 230.72z"/>
 <path d="m813.14 653.95c-3.9844-2.1094-8.9531-0.5625-11.062 3.375-2.1094 3.9844-0.5625 8.9531 3.4219 11.062 11.109 5.9062 21.047 13.641 29.438 23.062 6.6562 7.5 8.4844 13.312-0.42188 18.141-4.3594 2.3906-10.078 3.2344-15.609 4.0312-4.4531 0.65625-7.5469 4.8281-6.8906 9.2812 0.65625 4.5 4.875 7.5469 9.2812 6.8906 6.6094-0.98438 14.109-2.1094 21-5.8594 15.328-8.3438 21-25.266 4.8281-43.406-9.7031-10.781-21.141-19.734-33.984-26.578z"/>
 <path d="m890.16 552.19c-24.703 0-44.766 20.016-44.766 44.766 0 24.703 20.016 44.766 44.766 44.766 24.703 0 44.766-20.016 44.766-44.766s-20.016-44.766-44.766-44.766z"/>
 <path d="m722.29 1052.6c-79.312 24.422-173.11-5.9531-223.08-72.234-2.7188-3.6094-7.875-4.3125-11.438-1.5938-3.6094 2.7188-4.3125 7.875-1.5938 11.438 53.766 71.391 155.02 104.48 240.94 78 4.3125-1.3125 6.75-5.9062 5.3906-10.219s-5.9531-6.7031-10.219-5.3906z"/>
 <path d="m778.08 1035.6-20.062 6.4688c-10.172 3.2812-5.4375 18.938 5.0156 15.562l20.062-6.4688c4.3125-1.4062 6.6562-6 5.2969-10.312-1.4062-4.2656-6-6.6562-10.312-5.25z"/>
 <path d="m787.22 797.95c-4.3125 6.0469-12.422 9.4688-19.688 8.2969-7.3125-1.125-13.969-6.8438-16.219-13.922-1.3594-4.3125-6-6.7031-10.266-5.2969-4.3125 1.3594-6.7031 5.9531-5.2969 10.266 4.125 12.938 15.891 23.016 29.297 25.125 13.828 2.1094 27.891-4.2656 35.578-15 2.625-3.7031 1.7344-8.8125-1.9219-11.391-3.75-2.625-8.8594-1.7344-11.484 1.9219z"/>
 <path d="m609.66 198c-1.2656-4.3125-5.8125-6.7969-10.172-5.5312l-72.562 21.422c-4.3125 1.2656-6.7969 5.8125-5.5312 10.172 1.3125 4.3594 5.8594 6.7969 10.172 5.5312l72.562-21.422c4.3594-1.2656 6.8438-5.8125 5.5312-10.172z"/>
 <path d="m631.03 198.79 22.5-6.375c4.3594-1.2188 6.8906-5.7656 5.625-10.078-1.2188-4.3594-5.7188-6.8438-10.078-5.625l-22.5 6.375c-4.3594 1.2188-6.8906 5.7656-5.625 10.078 1.2188 4.4062 5.8125 6.8438 10.078 5.625z"/>
 <path d="m578.44 353.95c0 28.172-42.234 28.172-42.234 0s42.234-28.172 42.234 0"/>
 <path d="m674.9 332.81c11.672 0 21.141-9.4688 21.141-21.141s-9.4688-21.141-21.141-21.141-21.141 9.4688-21.141 21.141 9.4688 21.141 21.141 21.141z"/>
 <path d="m658.13 389.63c-4.125-1.9219-8.9531-0.1875-10.875 3.9375-6.6094 14.062-24.047 19.312-37.312 11.203-3.8906-2.3438-8.9062-1.125-11.25 2.7188s-1.125 8.9062 2.7188 11.25c21.562 13.125 49.969 4.5 60.656-18.234 1.9219-4.0781 0.14062-8.9531-3.9375-10.875z"/>
 <path d="m242.21 355.5c6.3281-4.6875 2.4844-15.656-6-14.625-14.391 1.7344-29.578-2.2969-41.906-11.109-6.0469-4.5-10.219-10.406-16.781-17.016-6.4219-6.3281-10.266-12-12.891-18.75-2.9531-8.3906-15.562-6.375-15.797 2.625 0 0.65625-1.7344 57.375-45.375 69.047-3.6094 0.98438-6.0938 4.2656-6.0938 7.9688 0.09375 3.7031 2.625 6.9844 6.2344 7.875 17.25 4.4531 63.797 22.125 73.078 51.281 1.0781 3.6094 4.4531 6.2344 8.0625 6.2344 4.2656 0 8.6719-3.7031 7.875-8.9531 0.09375-0.89062 1.2188-3.2812 1.7344-4.4531 5.3906-12.938 12.609-34.922 24.984-50.625 5.8125-7.7812 15.234-13.594 22.875-19.5zm-35.906 9.2344c-9.75 12.797-17.812 30.047-23.578 45.188-14.062-18.562-37.734-30.656-54.75-37.406 20.531-13.406 29.672-35.672 33.797-52.453 1.3125 1.4062 2.7188 2.8594 4.125 4.3594 8.1562 7.7344 18.75 25.594 48.656 31.734-2.9062 2.5781-5.625 5.4375-8.25 8.5781z"/>
 <path d="m1099.2 1046.7c-7.0781-5.0156-12.234-13.078-14.062-22.031-0.5625-2.7188-0.5625-5.5781-0.42188-8.8125 0-7.8281-0.89062-12.797 1.7344-19.734 1.5469-3.6094 0.23438-7.7344-3.0469-9.9375-3.375-2.0625-7.6406-1.6406-10.359 1.2188-0.98438 1.0781-24.75 25.219-48.75 12.656-7.7344-3.8438-15.094 4.875-10.594 11.766 6 9.2812 20.062 37.219 12.328 54-1.7344 3.7969-0.32812 8.3906 3.375 10.453 3.2344 1.875 7.5469 1.3125 10.031-1.5469 34.734-17.391 38.203-15 54.328-13.312 3.7969 0.42188 7.0781-1.875 8.3906-5.25 1.3125-3.4688 0.09375-7.4062-2.9531-9.4688zm-54.562 7.3125c-0.09375-12.234-4.125-24.562-8.2969-34.031 12.328 0.65625 23.438-3.7031 31.969-8.625 0.60938 4.0781-2.7188 15.938 6.9844 32.719-9.7969 1.125-21.703 5.6719-30.656 9.9375z"/>
 <path d="m869.26 156.42c2.9531 0 5.8594-1.6406 7.2656-4.4531l17.484-33.984c2.0625-4.0312 0.46875-8.9531-3.5156-11.016-4.0312-2.0625-8.9531-0.46875-11.016 3.5156l-17.484 33.984c-2.8125 5.4844 1.2188 11.953 7.2656 11.953z"/>
 <path d="m888.61 180.24c0.42188 4.2188 3.9844 7.4062 8.1562 7.4062 1.0781 0 1.2188-0.09375 52.266-4.875 4.5-0.42188 7.7812-4.4062 7.3594-8.9062s-4.5469-7.8281-8.9062-7.3594l-51.469 4.875c-4.5 0.375-7.7812 4.3594-7.4062 8.8594z"/>
</svg>
